<?xml version="1.0" encoding="utf-8"?>
<!-- Generator: Adobe Illustrator 23.1.1, SVG Export Plug-In . SVG Version: 6.00 Build 0)  -->
<svg version="1.1" id="Layer_1" xmlns="http://www.w3.org/2000/svg" xmlns:xlink="http://www.w3.org/1999/xlink" x="0px" y="0px"
	 viewBox="0 0 129.5 35.57" style="enable-background:new 0 0 129.5 35.57;" xml:space="preserve">
<style type="text/css">
	.st0{fill:#EA071D;}
	.st1{fill:#FFFFFF;}
</style>
<polygon class="st0" points="129.5,0 0,0 0,28.5 57.68,28.5 64.75,35.57 71.82,28.5 129.5,28.5 "/>
<g>
	<path class="st1" d="M24.92,15.91c-0.05,1.13-0.37,1.99-0.96,2.58s-1.42,0.88-2.49,0.88c-1.13,0-1.99-0.37-2.59-1.11
		s-0.9-1.8-0.9-3.17v-1.67c0-1.37,0.31-2.42,0.93-3.16s1.48-1.11,2.58-1.11c1.08,0,1.91,0.3,2.47,0.91s0.88,1.48,0.96,2.61h-2.02
		c-0.02-0.7-0.13-1.19-0.32-1.45s-0.56-0.4-1.09-0.4c-0.54,0-0.92,0.19-1.14,0.56s-0.34,0.99-0.36,1.86v1.88
		c0,0.99,0.11,1.67,0.33,2.04s0.6,0.55,1.14,0.55c0.53,0,0.89-0.13,1.09-0.39s0.31-0.72,0.34-1.4H24.92z"/>
	<path class="st1" d="M28.17,17.56h3.53v1.67h-5.54V9.27h2.01V17.56z"/>
	<path class="st1" d="M37.74,17.19H35l-0.53,2.04h-2.13l3.11-9.95h1.84l3.13,9.95h-2.15L37.74,17.19z M35.44,15.51h1.86l-0.93-3.55
		L35.44,15.51z"/>
	<path class="st1" d="M45.55,16.62c0-0.41-0.1-0.71-0.31-0.92s-0.58-0.42-1.13-0.65c-1-0.38-1.72-0.82-2.15-1.33
		s-0.66-1.11-0.66-1.8c0-0.84,0.3-1.51,0.89-2.02s1.35-0.76,2.27-0.76c0.61,0,1.16,0.13,1.63,0.39s0.85,0.62,1.1,1.09
		s0.39,1,0.39,1.6h-2c0-0.46-0.1-0.82-0.3-1.06s-0.48-0.37-0.86-0.37c-0.35,0-0.62,0.1-0.82,0.31s-0.29,0.49-0.29,0.84
		c0,0.27,0.11,0.52,0.33,0.74s0.61,0.45,1.16,0.69c0.97,0.35,1.68,0.78,2.12,1.29s0.66,1.16,0.66,1.95c0,0.87-0.28,1.54-0.83,2.03
		s-1.3,0.73-2.25,0.73c-0.64,0-1.23-0.13-1.76-0.4s-0.94-0.64-1.24-1.13s-0.45-1.07-0.45-1.74h2.02c0,0.57,0.11,0.99,0.33,1.25
		s0.59,0.39,1.09,0.39C45.2,17.73,45.55,17.36,45.55,16.62z"/>
	<path class="st1" d="M53.12,16.62c0-0.41-0.1-0.71-0.31-0.92s-0.58-0.42-1.13-0.65c-1-0.38-1.72-0.82-2.15-1.33
		s-0.66-1.11-0.66-1.8c0-0.84,0.3-1.51,0.89-2.02s1.35-0.76,2.27-0.76c0.61,0,1.16,0.13,1.63,0.39s0.85,0.62,1.1,1.09
		s0.39,1,0.39,1.6h-2c0-0.46-0.1-0.82-0.3-1.06s-0.48-0.37-0.86-0.37c-0.35,0-0.62,0.1-0.82,0.31s-0.29,0.49-0.29,0.84
		c0,0.27,0.11,0.52,0.33,0.74s0.61,0.45,1.16,0.69c0.97,0.35,1.68,0.78,2.12,1.29s0.66,1.16,0.66,1.95c0,0.87-0.28,1.54-0.83,2.03
		s-1.3,0.73-2.25,0.73c-0.64,0-1.23-0.13-1.76-0.4s-0.94-0.64-1.24-1.13s-0.45-1.07-0.45-1.74h2.02c0,0.57,0.11,0.99,0.33,1.25
		s0.59,0.39,1.09,0.39C52.76,17.73,53.12,17.36,53.12,16.62z"/>
	<path class="st1" d="M61.61,14.92h-3.13v2.64h3.71v1.67h-5.71V9.27h5.7v1.67h-3.69v2.35h3.13V14.92z"/>
	<path class="st1" d="M67.55,16.62c0-0.41-0.1-0.71-0.31-0.92s-0.58-0.42-1.13-0.65c-1-0.38-1.72-0.82-2.15-1.33
		c-0.44-0.51-0.66-1.11-0.66-1.8c0-0.84,0.3-1.51,0.89-2.02c0.59-0.51,1.35-0.76,2.27-0.76c0.61,0,1.16,0.13,1.63,0.39
		s0.85,0.62,1.1,1.09s0.39,1,0.39,1.6h-2c0-0.46-0.1-0.82-0.3-1.06s-0.48-0.37-0.86-0.37c-0.35,0-0.62,0.1-0.82,0.31
		s-0.29,0.49-0.29,0.84c0,0.27,0.11,0.52,0.33,0.74s0.61,0.45,1.16,0.69c0.97,0.35,1.68,0.78,2.12,1.29s0.66,1.16,0.66,1.95
		c0,0.87-0.28,1.54-0.83,2.03s-1.3,0.73-2.25,0.73c-0.64,0-1.23-0.13-1.76-0.4s-0.94-0.64-1.24-1.13s-0.45-1.07-0.45-1.74h2.02
		c0,0.57,0.11,0.99,0.33,1.25s0.59,0.39,1.09,0.39C67.19,17.73,67.55,17.36,67.55,16.62z"/>
	<path class="st1" d="M80.17,10.95H77.7v8.28h-2.02v-8.28h-2.42V9.27h6.9V10.95z"/>
	<path class="st1" d="M88.14,15.15c0,1.34-0.32,2.37-0.95,3.11s-1.51,1.11-2.63,1.11c-1.12,0-1.99-0.37-2.63-1.1
		s-0.96-1.76-0.97-3.07v-1.7c0-1.37,0.32-2.43,0.95-3.2s1.51-1.15,2.64-1.15c1.11,0,1.98,0.38,2.62,1.13s0.96,1.81,0.97,3.18V15.15z
		 M86.12,13.48c0-0.9-0.13-1.57-0.38-2s-0.65-0.66-1.19-0.66c-0.53,0-0.93,0.21-1.18,0.63s-0.39,1.06-0.4,1.92v1.77
		c0,0.87,0.13,1.51,0.39,1.92s0.66,0.62,1.2,0.62c0.52,0,0.91-0.2,1.17-0.6s0.39-1.03,0.39-1.88V13.48z"/>
	<path class="st1" d="M89.58,19.23V9.27h2.63c1.16,0,2.09,0.37,2.78,1.11c0.69,0.74,1.04,1.75,1.06,3.04v1.61
		c0,1.31-0.35,2.33-1.04,3.08c-0.69,0.75-1.64,1.12-2.85,1.12H89.58z M91.59,10.95v6.61h0.6c0.67,0,1.14-0.18,1.42-0.53
		s0.42-0.96,0.43-1.83v-1.73c0-0.93-0.13-1.58-0.39-1.94s-0.7-0.56-1.33-0.58H91.59z"/>
	<path class="st1" d="M102.24,17.19H99.5l-0.53,2.04h-2.13l3.11-9.95h1.84l3.13,9.95h-2.15L102.24,17.19z M99.93,15.51h1.86
		l-0.93-3.55L99.93,15.51z"/>
	<path class="st1" d="M107.82,13.74l1.5-4.47h2.19l-2.67,6.34v3.61h-2.04v-3.61l-2.67-6.34h2.19L107.82,13.74z"/>
</g>
</svg>
