<?xml version="1.0" encoding="utf-8"?>
<!-- Generator: Adobe Illustrator 24.1.2, SVG Export Plug-In . SVG Version: 6.00 Build 0)  -->
<svg version="1.1" id="Layer_1" xmlns="http://www.w3.org/2000/svg" xmlns:xlink="http://www.w3.org/1999/xlink" x="0px" y="0px"
	 viewBox="0 0 83.23 79.22" style="enable-background:new 0 0 83.23 79.22;" xml:space="preserve">
<style type="text/css">
	.st0{fill:#FFFFFF;}
</style>
<g>
	<path class="st0" d="M40.25,70.46c0.93,0,1.86,0,2.78,0c0,2.92,0,5.84,0,8.76c-0.94,0-1.88,0-2.82,0c0-2.89,0-5.77,0-8.66
		C40.21,70.51,40.21,70.47,40.25,70.46z"/>
	<path class="st0" d="M55.47,67.89c0.03-0.01,0.03,0.01,0.03,0.03c0.25,1.44-0.62,2.33-1.45,2.93c-0.39,0.28-0.82,0.45-1.14,0.81
		c-0.48,0.53-0.81,1.51-0.44,2.39c0.13,0.29,0.38,0.55,0.64,0.71c0.93,0.55,2.53,0.18,3.57,0.71c0.45,0.23,0.75,0.56,0.98,1.11
		c-2.13,0.61-4.34,1.15-6.9,1.35c-2.33,0.18-4.75-0.02-5.96-1.21c-0.18-0.18-0.4-0.42-0.44-0.57c-0.15-0.6,0.29-1.57,0.51-1.92
		c0.9-1.47,2.49-2.46,3.9-3.3C50.85,69.68,53.09,68.73,55.47,67.89z"/>
	<path class="st0" d="M27.77,67.89c3.11,1.16,6.37,2.47,8.85,4.48c0.82,0.66,1.63,1.44,2.02,2.39c0.13,0.32,0.31,0.88,0.24,1.31
		c-0.07,0.4-0.61,0.82-1.01,1.08c-1.23,0.78-3.34,0.92-5.35,0.77c-2.58-0.19-4.83-0.75-6.93-1.35c0.32-0.83,1.03-1.27,2.02-1.41
		c0.39-0.06,0.78-0.02,1.21-0.03c0.81-0.03,1.67-0.43,1.95-1.04c0.09-0.19,0.07-0.35,0.1-0.54c0.03-0.18,0.08-0.32,0.07-0.54
		c-0.04-0.5-0.28-0.97-0.57-1.31c-0.32-0.37-0.78-0.55-1.18-0.84c-0.77-0.56-1.7-1.46-1.45-2.86
		C27.73,67.94,27.73,67.89,27.77,67.89z"/>
	<path class="st0" d="M63.91,62.44c0.03-0.01,0.03,0.01,0.03,0.03c0.67,0.98-0.01,2.32-0.51,3c-0.33,0.45-0.63,1.11-0.64,1.95
		c-0.02,1.39,0.71,1.99,2.22,1.88c0.34-0.02,0.67-0.14,1.01-0.17c1.17-0.09,2.1,0.18,2.66,0.91c-1.82,1.12-3.77,2.16-5.96,3
		c-1,0.38-2.22,0.78-3.53,0.94c-0.99,0.12-2.17,0.07-2.93-0.3c-0.56-0.28-0.8-0.57-0.81-1.41c-0.01-1.31,0.71-2.37,1.31-3.23
		c0.66-0.94,1.36-1.7,2.09-2.42C60.55,64.92,62.19,63.66,63.91,62.44z"/>
	<path class="st0" d="M19.32,62.44c2.51,1.87,5.23,3.86,7.14,6.56c0.6,0.85,1.31,1.94,1.31,3.23c0,0.84-0.23,1.15-0.84,1.45
		c-1.89,0.91-4.87-0.05-6.43-0.64c-2.19-0.83-4.1-1.89-5.96-2.96c0.47-0.71,1.39-1.03,2.62-0.94c0.33,0.02,0.66,0.14,1.01,0.17
		c0.94,0.08,1.8-0.17,2.09-0.81c0.32-0.72,0.16-1.87-0.13-2.52c-0.17-0.38-0.49-0.64-0.67-0.98C19.11,64.38,18.73,63.14,19.32,62.44
		z"/>
	<path class="st0" d="M77.31,60.92c-0.67,0.72-1.47,1.34-2.29,1.99c-1.57,1.23-3.16,2.42-5.15,3.37c-1.31,0.62-3.29,1.3-4.78,0.5
		c-0.92-1.33-0.3-3.41,0.3-4.81c0.83-1.92,2-3.57,3.17-5.12c0.64-0.85,1.33-1.76,1.95-2.36c0.41,0.43,0.62,0.86,0.67,1.45
		c0.12,1.18-0.6,2.41-0.47,3.57c0.03,0.3,0.15,0.56,0.3,0.81c0.12,0.19,0.26,0.26,0.44,0.4c0.15,0.13,0.27,0.29,0.44,0.37
		c1.37,0.65,2.63-0.68,4-0.67C76.42,60.42,76.86,60.58,77.31,60.92z"/>
	<path class="st0" d="M18.14,66.78c-1.43,0.8-3.43,0.12-4.74-0.5c-1.99-0.94-3.58-2.11-5.18-3.37c-0.82-0.64-1.62-1.27-2.29-1.99
		c0.47-0.35,0.86-0.5,1.38-0.5c1.38-0.03,2.62,1.3,4.01,0.67c0.18-0.08,0.29-0.22,0.47-0.37c0.16-0.13,0.33-0.2,0.44-0.37
		c0.15-0.23,0.27-0.57,0.3-0.81c0.15-1.16-0.58-2.34-0.47-3.57c0.05-0.57,0.34-1.26,0.71-1.48c1.79,2.11,3.8,4.55,5.05,7.44
		C18.39,63.28,19.09,65.38,18.14,66.78z"/>
	<path class="st0" d="M73.57,44.73c0.03-0.01,0.03,0.01,0.03,0.03c0.75,0.37,1.13,0.95,1.45,1.82c0.17,0.46,0.35,1.05,0.37,1.51
		c0.02,0.39-0.02,0.68,0.03,0.98c0.09,0.46,0.32,0.93,0.71,1.14c0.67,0.37,1.62,0.21,2.19-0.13c0.42-0.26,0.65-0.7,1.04-1.04
		c0.63-0.55,1.32-0.78,2.36-0.77c-0.56,2.48-1.48,4.49-2.86,6.26c-1.09,1.4-2.66,2.71-4.58,3.43c-0.28,0.11-0.68,0.29-0.84,0.27
		c-0.37-0.04-0.88-0.82-1.04-1.14c-1.25-2.47-0.28-6.93,0.3-9.42C72.98,46.62,73.21,45.57,73.57,44.73z"/>
	<path class="st0" d="M9.66,44.73c0.03,0.01,0.03,0.03,0.07,0.03c0.62,2.14,1.22,4.31,1.52,6.87c0.21,1.82,0.25,4.16-0.47,5.52
		c-0.2,0.38-0.66,1.04-1.01,1.08c-0.16,0.02-0.58-0.16-0.88-0.27c-1.86-0.72-3.44-2.03-4.54-3.43c-1.38-1.77-2.3-3.78-2.86-6.26
		c1.1,0,1.76,0.27,2.35,0.77c0.39,0.33,0.59,0.79,1.01,1.04c0.71,0.44,2.1,0.5,2.62-0.2c0.18-0.24,0.25-0.53,0.3-0.81
		c0.06-0.32,0.02-0.61,0.04-0.98c0.04-0.87,0.55-2.18,1.04-2.76C9.06,45.09,9.34,44.89,9.66,44.73z"/>
	<path class="st0" d="M73.98,34.2c1,0.12,1.68,0.73,2.19,1.45c0.17,0.24,0.37,0.54,0.44,0.74c0.08,0.21,0.07,0.41,0.13,0.61
		c0.16,0.46,0.47,0.9,0.91,1.11c0.41,0.2,1.07,0.32,1.68,0.13c1.17-0.35,1.37-1.82,2.22-2.66c0.41-0.4,0.89-0.7,1.68-0.74
		c-0.4,3.2-1.04,6.44-2.26,8.99c-0.4,0.85-0.87,1.68-1.48,2.26c-0.33,0.31-1,0.81-1.48,0.81c-0.32,0-0.83-0.33-1.08-0.54
		c-0.65-0.55-1.08-1.41-1.45-2.32c-1.06-2.65-1.45-6.24-1.55-9.73C73.94,34.25,73.94,34.2,73.98,34.2z"/>
	<path class="st0" d="M0,34.84c1.28,0.09,2,0.93,2.49,1.85c0.23,0.43,0.4,0.87,0.74,1.18c0.8,0.71,2.48,0.5,3.03-0.34
		c0.11-0.17,0.18-0.37,0.23-0.54c0.07-0.19,0.06-0.39,0.13-0.61c0.14-0.38,0.66-1.07,0.98-1.38c0.38-0.37,0.82-0.66,1.41-0.77
		c0.3-0.06,0.26-0.03,0.27,0.34c0.03,0.91-0.13,2.36-0.2,3.13c-0.2,2.27-0.58,4.51-1.31,6.33c-0.37,0.92-0.84,1.78-1.48,2.32
		c-0.23,0.19-0.73,0.53-1.04,0.54c-0.48,0.02-1.24-0.54-1.51-0.81c-0.64-0.61-1.09-1.46-1.48-2.29C1.03,41.2,0.44,38.27,0,34.84z"/>
	<path class="st0" d="M69.6,25.24c-1.66-3.62-3.76-6.39-6.43-9.05c-1.26-1.26-2.69-2.46-4.24-3.5c-3.12-2.09-6.54-3.7-10.84-4.64
		c-2.05-0.45-4.7-0.79-7.1-0.67c-0.02,0-0.04,0-0.07,0c-2.49,0-4.77,0.38-6.87,0.88c-4.15,0.99-7.65,2.76-10.6,4.88
		c-2.97,2.13-5.61,4.82-7.64,7.84c-2.05,3.06-3.68,6.57-4.61,10.87c-0.7,3.23-0.86,7.17-0.4,10.64c0.15,1.14,0.34,2.21,0.6,3.26
		c1.53,6.18,4.51,10.91,8.45,14.78c2.58,2.53,5.64,4.64,9.26,6.23c3.63,1.59,7.86,2.62,12.92,2.59c4.75-0.03,9.09-1.27,12.59-2.89
		c3.58-1.66,6.5-3.87,9.05-6.43c2.59-2.59,4.66-5.66,6.23-9.26c1.6-3.66,2.59-7.79,2.59-12.92C72.5,33.03,71.21,28.74,69.6,25.24z
		 M41.47,68.49c-4.79-0.02-8.82-1.13-12.25-2.66c-3.41-1.52-6.38-3.55-8.85-6.02c-3.66-3.66-6.59-8.26-8.08-14.24
		c-0.5-2.03-0.87-4.26-0.87-6.56c0-2.47,0.17-4.73,0.6-6.83c0.84-4.04,2.43-7.51,4.41-10.47c3.02-4.5,6.84-7.9,11.88-10.43
		c3.61-1.81,7.86-3.02,13.16-3.06c0,1.51,0,3.03,0,4.54c-4.11-0.02-7.55,0.96-10.5,2.29c-2.93,1.32-5.45,3.09-7.57,5.22
		c-2.08,2.08-3.9,4.63-5.22,7.57c-1.33,2.97-2.22,6.45-2.22,10.53c0,4.1,0.91,7.57,2.25,10.53c1.34,2.94,3.14,5.46,5.22,7.54
		c2.13,2.13,4.64,3.9,7.57,5.22c2.95,1.32,6.37,2.26,10.47,2.29C41.47,65.46,41.47,66.98,41.47,68.49z M64.59,49.11
		c-2.03,4.31-4.95,7.62-8.68,10.2c-3.33,2.3-7.47,4.12-12.89,4.44c-0.54,0.03-1.13,0.11-1.52,0.03c-0.31-0.06-0.68-0.36-0.97-0.57
		c-0.91-0.64-1.64-1.46-1.75-2.83c1.59,0.13,3.43,0.14,4.48-0.5c0.36-0.22,0.7-0.62,0.71-1.14c-0.11-0.13-0.35-0.1-0.57-0.13
		c-1.31-0.19-2.74-0.47-3.94-0.84c-0.68-0.21-1.35-0.46-1.92-0.81c-0.27-0.17-0.48-0.4-0.74-0.64c-0.24-0.23-0.53-0.41-0.71-0.64
		c-0.44-0.57-0.71-1.31-0.77-2.19c-0.12-1.6,0.36-2.92,1.08-3.87c0.75-1,1.74-1.59,3.1-1.82c3.17-0.53,5.15,1.16,6.33,3.33
		c3.24-1.49,5.73-3.74,7.77-6.43c-0.66-0.45-1.42-0.2-2.02,0c-0.61,0.2-1.2,0.55-1.75,0.74c-1.25,0.42-3.71,0.95-4.61-0.17
		c-0.11-0.14-0.17-0.38-0.27-0.61c-0.16-0.35-0.29-0.47-0.3-0.94c-0.03-1.16,0.78-2.41,1.28-3.13c0.3-0.43,0.66-0.84,0.98-1.21
		c0.35-0.41,0.71-0.7,1.15-1.04c1.16-0.91,2.56-1.97,4.48-2.09c0.52-0.03,0.94,0.05,1.35,0.24c0.19,0.09,0.31,0.11,0.44,0.24
		c0.53,0.5,0.72,1.66,0.84,2.59c0.14,1.06,0.19,2.1,0.17,3.23c2.03-0.14,3.28-0.99,4.51-2.05c0.17-0.15,0.37-0.31,0.57-0.5
		c0.19-0.19,0.46-0.37,0.54-0.54c0.06-0.13,0.06-0.33,0.1-0.47c0.2-0.7,0.59-1.18,1.01-1.75c0.14-0.19,0.42-0.51,0.44-0.67
		c0.03-0.27-0.19-0.86-0.37-1.31c-0.48-1.2-1.22-2.25-1.89-3.16c-2.37-3.24-5.29-5.92-8.28-8.48c-0.3-0.26-0.6-0.52-0.91-0.77
		c-0.3-0.25-0.6-0.54-0.91-0.74c-0.42-0.28-0.92-0.5-1.38-0.77c-0.93-0.56-1.65-1.07-2.42-1.88c-0.33-0.35-0.79-0.9-0.74-1.41
		c0.02-0.16,0.15-0.42,0.24-0.5c0.4-0.41,1.37-0.2,1.95-0.07c0.76,0.18,1.36,0.37,1.78,0.54c-0.5-2.28-2.61-3.43-4.75-4.27
		c-0.76-0.3-1.52-0.58-2.35-0.74c-0.01-0.03,0.01-0.03,0.03-0.03c8.01,0.47,13.14,3.55,17.4,7.81c2.05,2.05,3.77,4.69,5.02,7.57
		c1.3,3,2.05,6.38,2.05,10.53C66.94,42.72,65.88,46.36,64.59,49.11z M52.07,26.93c2.25,0.44,3.6,1.79,4.34,3.74
		C54.52,29.88,51.74,29.81,52.07,26.93z"/>
	<path class="st0" d="M79.71,23.2c0.01,0.01,0.01,0.01,0.03,0.01c0.48,2.63,1.27,7.45-0.1,9.9c-0.21,0.38-0.71,1.03-1.14,1.11
		c-0.45,0.08-1.16-0.16-1.62-0.37c-1.34-0.63-2.19-1.89-2.83-3.13c-0.91-1.77-1.51-3.86-1.78-6.06c0.98-0.16,1.64,0.4,2.05,0.91
		c0.43,0.52,0.67,1.28,1.35,1.58c0.84,0.37,1.67-0.04,2.02-0.67c0.32-0.59,0.27-1.2,0.47-1.72C78.43,24.05,78.92,23.46,79.71,23.2z"
		/>
	<path class="st0" d="M3.53,23.21c0.01-0.01,0.02-0.01,0.03-0.01c0.72,0.29,1.2,0.77,1.51,1.56c0.22,0.54,0.17,1.16,0.47,1.72
		c0.34,0.61,1.1,1.06,1.98,0.67c0.82-0.36,1.03-1.31,1.68-1.92c0.39-0.36,0.9-0.69,1.72-0.57c0.11,0.05,0.02,0.24,0,0.37
		c-0.29,2.08-0.91,4.06-1.75,5.69c-0.63,1.22-1.46,2.49-2.83,3.13c-0.46,0.21-1.15,0.46-1.62,0.37c-0.31-0.06-0.67-0.44-0.91-0.77
		c-1.39-1.95-1.04-5.96-0.6-8.72C3.31,24.2,3.37,23.62,3.53,23.21z"/>
	<path class="st0" d="M17.13,15.88c0.05,0.13-0.11,0.17-0.17,0.24c-1.05,1.21-2.25,2.4-3.54,3.47c-0.64,0.54-1.36,1.09-2.15,1.58
		c-1.03,0.64-2.45,1.38-3.9,0.84c-1.21-1.86,0.1-4.74,0.84-6.33c0.71-1.52,1.51-2.87,2.32-3.97c0.03,0.01,0.03,0.03,0.07,0.03
		c0.5,0.54,0.82,1.27,0.74,2.39c-0.05,0.68-0.35,1.78,0.17,2.32c0.38,0.4,1.01,0.44,1.58,0.27c0.47-0.14,0.91-0.49,1.41-0.71
		C15.34,15.65,16.3,15.34,17.13,15.88z"/>
	<path class="st0" d="M75.86,22.01c-1.36,0.55-2.89-0.21-3.9-0.84c-0.79-0.49-1.49-1.03-2.15-1.58c-0.69-0.57-1.36-1.19-1.95-1.78
		c-0.56-0.56-1.1-1.08-1.62-1.68c-0.05-0.05-0.17-0.13-0.13-0.24c0.99-0.65,2.45-0.05,3.33,0.47c0.38,0.22,0.7,0.47,1.28,0.47
		c1.02-0.01,1.4-0.69,1.31-1.88c-0.02-0.27-0.11-0.54-0.13-0.77c-0.11-1.19,0.28-1.96,0.81-2.49c0.03-0.01,0.03,0.01,0.03,0.03
		c1.14,1.73,2.42,3.82,3.16,6.09C76.31,19.07,76.69,20.93,75.86,22.01z"/>
	<path class="st0" d="M69.33,12.4c-0.84,0.74-2.47,0.42-3.57,0.03c-1.55-0.55-2.77-1.33-4.1-2.22c-0.19-0.12-0.73-0.43-0.74-0.5
		c-0.02-0.17,0.7-0.48,0.84-0.5c0.98-0.15,1.81,0.52,2.59,0.24c0.31-0.11,0.59-0.45,0.64-0.67c0.12-0.55-0.24-0.95-0.4-1.48
		c-0.21-0.71-0.12-1.4,0.27-1.88c1.36,1.11,2.92,2.49,3.94,4.17C69.28,10.37,69.74,11.36,69.33,12.4z"/>
	<path class="st0" d="M13.9,12.4c-0.57-1.74,0.8-3.33,1.65-4.31c0.94-1.08,1.88-1.95,2.83-2.69c0.03-0.01,0.03,0.01,0.03,0.03
		c0.26,0.44,0.39,0.65,0.34,1.28c-0.06,0.72-0.63,1.32-0.5,2.02c0.05,0.27,0.36,0.6,0.6,0.71c0.78,0.32,1.67-0.38,2.63-0.24
		c0.13,0.02,0.28,0.09,0.47,0.2c0.11,0.07,0.37,0.18,0.37,0.27c0,0.11-0.54,0.41-0.74,0.54c-1.31,0.87-2.52,1.66-4.1,2.22
		C16.39,12.82,14.77,13.15,13.9,12.4z"/>
	<path class="st0" d="M36.31,0.2c-0.88,1.99-4.37,3.12-7.29,2.77c0.55-1.36,1.88-2.36,3.77-2.8C34.01-0.12,35.23,0.01,36.31,0.2z"/>
	<path class="st0" d="M47.13,0.2C48,2.19,51.5,3.32,54.41,2.97c-0.55-1.36-1.88-2.36-3.77-2.8C49.43-0.12,48.2,0.01,47.13,0.2z"/>
	<path class="st0" d="M56.51,1.28c1.54,0.65,3.66,1.54,4.85,2.79c0.42,0.45,0.85,1.01,0.77,1.95c-1.45,1.87-5.47,0.62-7.37-0.07
		c0.03-0.2,0.19-0.41,0.34-0.54c0.14-0.13,0.45-0.34,0.71-0.37c0.35-0.04,0.74,0.06,1.08,0c0.59-0.1,1.13-0.53,0.91-1.25
		C57.67,3.42,57.34,3.28,57.02,3c-0.27-0.24-0.58-0.61-0.64-0.94C56.34,1.85,56.33,1.49,56.51,1.28z"/>
	<path class="st0" d="M26.72,1.28c0.03,0.01,0.03,0.03,0.07,0.03c0.15,0.59,0.04,0.99-0.24,1.35c-0.34,0.43-0.95,0.63-1.11,1.11
		c-0.05,0.16-0.09,0.4-0.03,0.61c0.1,0.35,0.53,0.6,0.91,0.67c0.39,0.08,0.87-0.06,1.25,0.03c0.25,0.06,0.42,0.23,0.57,0.37
		c0.14,0.13,0.33,0.29,0.34,0.5C27.04,6.42,25.22,7.11,23.26,7c-0.94-0.05-1.71-0.34-2.15-0.98c-0.08-0.89,0.32-1.46,0.74-1.92
		C22.9,2.95,25.19,1.89,26.72,1.28z"/>
</g>
</svg>
