<svg version="1.1" id="Layer_1" xmlns="http://www.w3.org/2000/svg" x="0" y="0" viewBox="0 0 129.5 35.57" xml:space="preserve"><path fill="#ea071d" d="M129.5 0H0v28.5h57.68l7.07 7.07 7.07-7.07h57.68z"/><path d="M24.92 15.91c-.05 1.13-.37 1.99-.96 2.58s-1.42.88-2.49.88c-1.13 0-1.99-.37-2.59-1.11s-.9-1.8-.9-3.17v-1.67c0-1.37.31-2.42.93-3.16s1.48-1.11 2.58-1.11c1.08 0 1.91.3 2.47.91s.88 1.48.96 2.61H22.9c-.02-.7-.13-1.19-.32-1.45s-.56-.4-1.09-.4c-.54 0-.92.19-1.14.56s-.34.99-.36 1.86v1.88c0 .99.11 1.67.33 2.04s.6.55 1.14.55c.53 0 .89-.13 1.09-.39s.31-.72.34-1.4h2.03zm3.25 1.65h3.53v1.67h-5.54V9.27h2.01v8.29zm9.57-.37H35l-.53 2.04h-2.13l3.11-9.95h1.84l3.13 9.95h-2.15l-.53-2.04zm-2.3-1.68h1.86l-.93-3.55-.93 3.55zm10.11 1.11c0-.41-.1-.71-.31-.92s-.58-.42-1.13-.65c-1-.38-1.72-.82-2.15-1.33s-.66-1.11-.66-1.8c0-.84.3-1.51.89-2.02s1.35-.76 2.27-.76c.61 0 1.16.13 1.63.39s.85.62 1.1 1.09.39 1 .39 1.6h-2c0-.46-.1-.82-.3-1.06s-.48-.37-.86-.37c-.35 0-.62.1-.82.31s-.29.49-.29.84c0 .27.11.52.33.74s.61.45 1.16.69c.97.35 1.68.78 2.12 1.29s.66 1.16.66 1.95c0 .87-.28 1.54-.83 2.03s-1.3.73-2.25.73c-.64 0-1.23-.13-1.76-.4s-.94-.64-1.24-1.13-.45-1.07-.45-1.74h2.02c0 .57.11.99.33 1.25s.59.39 1.09.39c.71-.01 1.06-.38 1.06-1.12zm7.57 0c0-.41-.1-.71-.31-.92s-.58-.42-1.13-.65c-1-.38-1.72-.82-2.15-1.33s-.66-1.11-.66-1.8c0-.84.3-1.51.89-2.02s1.35-.76 2.27-.76c.61 0 1.16.13 1.63.39s.85.62 1.1 1.09.39 1 .39 1.6h-2c0-.46-.1-.82-.3-1.06s-.48-.37-.86-.37c-.35 0-.62.1-.82.31s-.29.49-.29.84c0 .27.11.52.33.74s.61.45 1.16.69c.97.35 1.68.78 2.12 1.29s.66 1.16.66 1.95c0 .87-.28 1.54-.83 2.03s-1.3.73-2.25.73c-.64 0-1.23-.13-1.76-.4s-.94-.64-1.24-1.13-.45-1.07-.45-1.74h2.02c0 .57.11.99.33 1.25s.59.39 1.09.39c.7-.01 1.06-.38 1.06-1.12zm8.49-1.7h-3.13v2.64h3.71v1.67h-5.71V9.27h5.7v1.67h-3.69v2.35h3.13v1.63zm5.94 1.7c0-.41-.1-.71-.31-.92s-.58-.42-1.13-.65c-1-.38-1.72-.82-2.15-1.33-.44-.51-.66-1.11-.66-1.8 0-.84.3-1.51.89-2.02.59-.51 1.35-.76 2.27-.76.61 0 1.16.13 1.63.39s.85.62 1.1 1.09.39 1 .39 1.6h-2c0-.46-.1-.82-.3-1.06s-.48-.37-.86-.37c-.35 0-.62.1-.82.31s-.29.49-.29.84c0 .27.11.52.33.74s.61.45 1.16.69c.97.35 1.68.78 2.12 1.29s.66 1.16.66 1.95c0 .87-.28 1.54-.83 2.03s-1.3.73-2.25.73c-.64 0-1.23-.13-1.76-.4s-.94-.64-1.24-1.13-.45-1.07-.45-1.74h2.02c0 .57.11.99.33 1.25s.59.39 1.09.39c.7-.01 1.06-.38 1.06-1.12zm12.62-5.67H77.7v8.28h-2.02v-8.28h-2.42V9.27h6.9v1.68zm7.97 4.2c0 1.34-.32 2.37-.95 3.11s-1.51 1.11-2.63 1.11c-1.12 0-1.99-.37-2.63-1.1s-.96-1.76-.97-3.07v-1.7c0-1.37.32-2.43.95-3.2s1.51-1.15 2.64-1.15c1.11 0 1.98.38 2.62 1.13s.96 1.81.97 3.18v1.69zm-2.02-1.67c0-.9-.13-1.57-.38-2s-.65-.66-1.19-.66c-.53 0-.93.21-1.18.63s-.39 1.06-.4 1.92v1.77c0 .87.13 1.51.39 1.92s.66.62 1.2.62c.52 0 .91-.2 1.17-.6s.39-1.03.39-1.88v-1.72zm3.46 5.75V9.27h2.63c1.16 0 2.09.37 2.78 1.11.69.74 1.04 1.75 1.06 3.04v1.61c0 1.31-.35 2.33-1.04 3.08-.69.75-1.64 1.12-2.85 1.12h-2.58zm2.01-8.28v6.61h.6c.67 0 1.14-.18 1.42-.53s.42-.96.43-1.83v-1.73c0-.93-.13-1.58-.39-1.94s-.7-.56-1.33-.58h-.73zm10.65 6.24H99.5l-.53 2.04h-2.13l3.11-9.95h1.84l3.13 9.95h-2.15l-.53-2.04zm-2.31-1.68h1.86l-.93-3.55-.93 3.55zm7.89-1.77l1.5-4.47h2.19l-2.67 6.34v3.61h-2.04v-3.61l-2.67-6.34h2.19l1.5 4.47z" fill="#fff"/></svg>