<svg version="1.1" id="Layer_1" xmlns="http://www.w3.org/2000/svg" x="0" y="0" viewBox="0 0 83.23 79.22" xml:space="preserve"><style type="text/css">.st0{fill:#fff}</style><path class="st0" d="M40.25 70.46h2.78v8.76h-2.82v-8.66c0-.05 0-.09.04-.1zm15.22-2.57c.03-.01.03.01.03.03.25 1.44-.62 2.33-1.45 2.93-.39.28-.82.45-1.14.81-.48.53-.81 1.51-.44 2.39.13.29.38.55.64.71.93.55 2.53.18 3.57.71.45.23.75.56.98 1.11-2.13.61-4.34 1.15-6.9 1.35-2.33.18-4.75-.02-5.96-1.21-.18-.18-.4-.42-.44-.57-.15-.6.29-1.57.51-1.92.9-1.47 2.49-2.46 3.9-3.3 2.08-1.25 4.32-2.2 6.7-3.04zm-27.7 0c3.11 1.16 6.37 2.47 8.85 4.48.82.66 1.63 1.44 2.02 2.39.13.32.31.88.24 1.31-.07.4-.61.82-1.01 1.08-1.23.78-3.34.92-5.35.77-2.58-.19-4.83-.75-6.93-1.35.32-.83 1.03-1.27 2.02-1.41.39-.06.78-.02 1.21-.03.81-.03 1.67-.43 1.95-1.04.09-.19.07-.35.1-.54.03-.18.08-.32.07-.54-.04-.5-.28-.97-.57-1.31-.32-.37-.78-.55-1.18-.84-.77-.56-1.7-1.46-1.45-2.86-.01-.06-.01-.11.03-.11z"/><path class="st0" d="M63.91 62.44c.03-.01.03.01.03.03.67.98-.01 2.32-.51 3-.33.45-.63 1.11-.64 1.95-.02 1.39.71 1.99 2.22 1.88.34-.02.67-.14 1.01-.17 1.17-.09 2.1.18 2.66.91-1.82 1.12-3.77 2.16-5.96 3-1 .38-2.22.78-3.53.94-.99.12-2.17.07-2.93-.3-.56-.28-.8-.57-.81-1.41-.01-1.31.71-2.37 1.31-3.23.66-.94 1.36-1.7 2.09-2.42 1.7-1.7 3.34-2.96 5.06-4.18zm-44.59 0c2.51 1.87 5.23 3.86 7.14 6.56.6.85 1.31 1.94 1.31 3.23 0 .84-.23 1.15-.84 1.45-1.89.91-4.87-.05-6.43-.64-2.19-.83-4.1-1.89-5.96-2.96.47-.71 1.39-1.03 2.62-.94.33.02.66.14 1.01.17.94.08 1.8-.17 2.09-.81.32-.72.16-1.87-.13-2.52-.17-.38-.49-.64-.67-.98-.35-.62-.73-1.86-.14-2.56z"/><path class="st0" d="M77.31 60.92c-.67.72-1.47 1.34-2.29 1.99-1.57 1.23-3.16 2.42-5.15 3.37-1.31.62-3.29 1.3-4.78.5-.92-1.33-.3-3.41.3-4.81.83-1.92 2-3.57 3.17-5.12.64-.85 1.33-1.76 1.95-2.36.41.43.62.86.67 1.45.12 1.18-.6 2.41-.47 3.57.03.3.15.56.3.81.12.19.26.26.44.4.15.13.27.29.44.37 1.37.65 2.63-.68 4-.67.53 0 .97.16 1.42.5zm-59.17 5.86c-1.43.8-3.43.12-4.74-.5-1.99-.94-3.58-2.11-5.18-3.37-.82-.64-1.62-1.27-2.29-1.99.47-.35.86-.5 1.38-.5 1.38-.03 2.62 1.3 4.01.67.18-.08.29-.22.47-.37.16-.13.33-.2.44-.37.15-.23.27-.57.3-.81.15-1.16-.58-2.34-.47-3.57.05-.57.34-1.26.71-1.48 1.79 2.11 3.8 4.55 5.05 7.44.57 1.35 1.27 3.45.32 4.85z"/><path class="st0" d="M73.57 44.73c.03-.01.03.01.03.03.75.37 1.13.95 1.45 1.82.17.46.35 1.05.37 1.51.02.39-.02.68.03.98.09.46.32.93.71 1.14.67.37 1.62.21 2.19-.13.42-.26.65-.7 1.04-1.04.63-.55 1.32-.78 2.36-.77-.56 2.48-1.48 4.49-2.86 6.26-1.09 1.4-2.66 2.71-4.58 3.43-.28.11-.68.29-.84.27-.37-.04-.88-.82-1.04-1.14-1.25-2.47-.28-6.93.3-9.42.25-1.05.48-2.1.84-2.94zm-63.91 0c.03.01.03.03.07.03.62 2.14 1.22 4.31 1.52 6.87.21 1.82.25 4.16-.47 5.52-.2.38-.66 1.04-1.01 1.08-.16.02-.58-.16-.88-.27-1.86-.72-3.44-2.03-4.54-3.43-1.38-1.77-2.3-3.78-2.86-6.26 1.1 0 1.76.27 2.35.77.39.33.59.79 1.01 1.04.71.44 2.1.5 2.62-.2.18-.24.25-.53.3-.81.06-.32.02-.61.04-.98.04-.87.55-2.18 1.04-2.76.21-.24.49-.44.81-.6z"/><path class="st0" d="M73.98 34.2c1 .12 1.68.73 2.19 1.45.17.24.37.54.44.74.08.21.07.41.13.61.16.46.47.9.91 1.11.41.2 1.07.32 1.68.13 1.17-.35 1.37-1.82 2.22-2.66.41-.4.89-.7 1.68-.74-.4 3.2-1.04 6.44-2.26 8.99-.4.85-.87 1.68-1.48 2.26-.33.31-1 .81-1.48.81-.32 0-.83-.33-1.08-.54-.65-.55-1.08-1.41-1.45-2.32-1.06-2.65-1.45-6.24-1.55-9.73.01-.06.01-.11.05-.11zM0 34.84c1.28.09 2 .93 2.49 1.85.23.43.4.87.74 1.18.8.71 2.48.5 3.03-.34.11-.17.18-.37.23-.54.07-.19.06-.39.13-.61.14-.38.66-1.07.98-1.38.38-.37.82-.66 1.41-.77.3-.06.26-.03.27.34.03.91-.13 2.36-.2 3.13-.2 2.27-.58 4.51-1.31 6.33-.37.92-.84 1.78-1.48 2.32-.23.19-.73.53-1.04.54-.48.02-1.24-.54-1.51-.81-.64-.61-1.09-1.46-1.48-2.29C1.03 41.2.44 38.27 0 34.84zm69.6-9.6c-1.66-3.62-3.76-6.39-6.43-9.05a28.503 28.503 0 00-4.24-3.5c-3.12-2.09-6.54-3.7-10.84-4.64-2.05-.45-4.7-.79-7.1-.67h-.07c-2.49 0-4.77.38-6.87.88-4.15.99-7.65 2.76-10.6 4.88-2.97 2.13-5.61 4.82-7.64 7.84-2.05 3.06-3.68 6.57-4.61 10.87-.7 3.23-.86 7.17-.4 10.64.15 1.14.34 2.21.6 3.26 1.53 6.18 4.51 10.91 8.45 14.78 2.58 2.53 5.64 4.64 9.26 6.23 3.63 1.59 7.86 2.62 12.92 2.59 4.75-.03 9.09-1.27 12.59-2.89 3.58-1.66 6.5-3.87 9.05-6.43 2.59-2.59 4.66-5.66 6.23-9.26 1.6-3.66 2.59-7.79 2.59-12.92.01-4.82-1.28-9.11-2.89-12.61zM41.47 68.49c-4.79-.02-8.82-1.13-12.25-2.66-3.41-1.52-6.38-3.55-8.85-6.02-3.66-3.66-6.59-8.26-8.08-14.24-.5-2.03-.87-4.26-.87-6.56 0-2.47.17-4.73.6-6.83.84-4.04 2.43-7.51 4.41-10.47 3.02-4.5 6.84-7.9 11.88-10.43 3.61-1.81 7.86-3.02 13.16-3.06v4.54c-4.11-.02-7.55.96-10.5 2.29a25.22 25.22 0 00-7.57 5.22 25.5 25.5 0 00-5.22 7.57c-1.33 2.97-2.22 6.45-2.22 10.53 0 4.1.91 7.57 2.25 10.53 1.34 2.94 3.14 5.46 5.22 7.54 2.13 2.13 4.64 3.9 7.57 5.22 2.95 1.32 6.37 2.26 10.47 2.29v4.54zm23.12-19.38c-2.03 4.31-4.95 7.62-8.68 10.2-3.33 2.3-7.47 4.12-12.89 4.44-.54.03-1.13.11-1.52.03-.31-.06-.68-.36-.97-.57-.91-.64-1.64-1.46-1.75-2.83 1.59.13 3.43.14 4.48-.5.36-.22.7-.62.71-1.14-.11-.13-.35-.1-.57-.13-1.31-.19-2.74-.47-3.94-.84-.68-.21-1.35-.46-1.92-.81-.27-.17-.48-.4-.74-.64-.24-.23-.53-.41-.71-.64-.44-.57-.71-1.31-.77-2.19-.12-1.6.36-2.92 1.08-3.87.75-1 1.74-1.59 3.1-1.82 3.17-.53 5.15 1.16 6.33 3.33 3.24-1.49 5.73-3.74 7.77-6.43-.66-.45-1.42-.2-2.02 0-.61.2-1.2.55-1.75.74-1.25.42-3.71.95-4.61-.17-.11-.14-.17-.38-.27-.61-.16-.35-.29-.47-.3-.94-.03-1.16.78-2.41 1.28-3.13.3-.43.66-.84.98-1.21.35-.41.71-.7 1.15-1.04 1.16-.91 2.56-1.97 4.48-2.09.52-.03.94.05 1.35.24.19.09.31.11.44.24.53.5.72 1.66.84 2.59.14 1.06.19 2.1.17 3.23 2.03-.14 3.28-.99 4.51-2.05.17-.15.37-.31.57-.5.19-.19.46-.37.54-.54.06-.13.06-.33.1-.47.2-.7.59-1.18 1.01-1.75.14-.19.42-.51.44-.67.03-.27-.19-.86-.37-1.31-.48-1.2-1.22-2.25-1.89-3.16-2.37-3.24-5.29-5.92-8.28-8.48-.3-.26-.6-.52-.91-.77-.3-.25-.6-.54-.91-.74-.42-.28-.92-.5-1.38-.77-.93-.56-1.65-1.07-2.42-1.88-.33-.35-.79-.9-.74-1.41.02-.16.15-.42.24-.5.4-.41 1.37-.2 1.95-.07.76.18 1.36.37 1.78.54-.5-2.28-2.61-3.43-4.75-4.27-.76-.3-1.52-.58-2.35-.74-.01-.03.01-.03.03-.03 8.01.47 13.14 3.55 17.4 7.81 2.05 2.05 3.77 4.69 5.02 7.57 1.3 3 2.05 6.38 2.05 10.53-.04 3.83-1.1 7.47-2.39 10.22zM52.07 26.93c2.25.44 3.6 1.79 4.34 3.74-1.89-.79-4.67-.86-4.34-3.74zm27.64-3.73c.01.01.01.01.03.01.48 2.63 1.27 7.45-.1 9.9-.21.38-.71 1.03-1.14 1.11-.45.08-1.16-.16-1.62-.37-1.34-.63-2.19-1.89-2.83-3.13-.91-1.77-1.51-3.86-1.78-6.06.98-.16 1.64.4 2.05.91.43.52.67 1.28 1.35 1.58.84.37 1.67-.04 2.02-.67.32-.59.27-1.2.47-1.72.27-.71.76-1.3 1.55-1.56zm-76.18.01c.01-.01.02-.01.03-.01.72.29 1.2.77 1.51 1.56.22.54.17 1.16.47 1.72.34.61 1.1 1.06 1.98.67.82-.36 1.03-1.31 1.68-1.92.39-.36.9-.69 1.72-.57.11.05.02.24 0 .37-.29 2.08-.91 4.06-1.75 5.69-.63 1.22-1.46 2.49-2.83 3.13-.46.21-1.15.46-1.62.37-.31-.06-.67-.44-.91-.77-1.39-1.95-1.04-5.96-.6-8.72.1-.53.16-1.11.32-1.52zm13.6-7.33c.05.13-.11.17-.17.24-1.05 1.21-2.25 2.4-3.54 3.47-.64.54-1.36 1.09-2.15 1.58-1.03.64-2.45 1.38-3.9.84-1.21-1.86.1-4.74.84-6.33.71-1.52 1.51-2.87 2.32-3.97.03.01.03.03.07.03.5.54.82 1.27.74 2.39-.05.68-.35 1.78.17 2.32.38.4 1.01.44 1.58.27.47-.14.91-.49 1.41-.71.84-.36 1.8-.67 2.63-.13zm58.73 6.13c-1.36.55-2.89-.21-3.9-.84a18.95 18.95 0 01-2.15-1.58c-.69-.57-1.36-1.19-1.95-1.78-.56-.56-1.1-1.08-1.62-1.68-.05-.05-.17-.13-.13-.24.99-.65 2.45-.05 3.33.47.38.22.7.47 1.28.47 1.02-.01 1.4-.69 1.31-1.88-.02-.27-.11-.54-.13-.77-.11-1.19.28-1.96.81-2.49.03-.01.03.01.03.03 1.14 1.73 2.42 3.82 3.16 6.09.41 1.26.79 3.12-.04 4.2zm-6.53-9.61c-.84.74-2.47.42-3.57.03-1.55-.55-2.77-1.33-4.1-2.22-.19-.12-.73-.43-.74-.5-.02-.17.7-.48.84-.5.98-.15 1.81.52 2.59.24.31-.11.59-.45.64-.67.12-.55-.24-.95-.4-1.48-.21-.71-.12-1.4.27-1.88 1.36 1.11 2.92 2.49 3.94 4.17.48.78.94 1.77.53 2.81zm-55.43 0c-.57-1.74.8-3.33 1.65-4.31a20.07 20.07 0 012.83-2.69c.03-.01.03.01.03.03.26.44.39.65.34 1.28-.06.72-.63 1.32-.5 2.02.05.27.36.6.6.71.78.32 1.67-.38 2.63-.24.13.02.28.09.47.2.11.07.37.18.37.27 0 .11-.54.41-.74.54-1.31.87-2.52 1.66-4.1 2.22-1.09.39-2.71.72-3.58-.03zM36.31.2c-.88 1.99-4.37 3.12-7.29 2.77.55-1.36 1.88-2.36 3.77-2.8 1.22-.29 2.44-.16 3.52.03zm10.82 0c.87 1.99 4.37 3.12 7.28 2.77-.55-1.36-1.88-2.36-3.77-2.8-1.21-.29-2.44-.16-3.51.03zm9.38 1.08c1.54.65 3.66 1.54 4.85 2.79.42.45.85 1.01.77 1.95-1.45 1.87-5.47.62-7.37-.07.03-.2.19-.41.34-.54.14-.13.45-.34.71-.37.35-.04.74.06 1.08 0 .59-.1 1.13-.53.91-1.25-.13-.37-.46-.51-.78-.79-.27-.24-.58-.61-.64-.94-.04-.21-.05-.57.13-.78zm-29.79 0c.03.01.03.03.07.03.15.59.04.99-.24 1.35-.34.43-.95.63-1.11 1.11-.05.16-.09.4-.03.61.1.35.53.6.91.67.39.08.87-.06 1.25.03.25.06.42.23.57.37.14.13.33.29.34.5-1.44.47-3.26 1.16-5.22 1.05-.94-.05-1.71-.34-2.15-.98-.08-.89.32-1.46.74-1.92 1.05-1.15 3.34-2.21 4.87-2.82z"/></svg>